<svg width="35" height="35" viewBox="0 0 35 35" fill="none" xmlns="http://www.w3.org/2000/svg">
<path d="M31.0898 29.2065L22.2134 20.3301C23.5908 18.5493 24.3359 16.3721 24.3359 14.082C24.3359 11.3408 23.2661 8.77051 21.3315 6.83252C19.397 4.89453 16.8198 3.82812 14.082 3.82812C11.3442 3.82812 8.76709 4.89795 6.83252 6.83252C4.89453 8.76709 3.82812 11.3408 3.82812 14.082C3.82812 16.8198 4.89795 19.397 6.83252 21.3315C8.76709 23.2695 11.3408 24.3359 14.082 24.3359C16.3721 24.3359 18.5459 23.5908 20.3267 22.2168L29.2031 31.0898C29.2292 31.1159 29.2601 31.1365 29.2941 31.1506C29.3281 31.1647 29.3645 31.172 29.4014 31.172C29.4382 31.172 29.4746 31.1647 29.5087 31.1506C29.5427 31.1365 29.5736 31.1159 29.5996 31.0898L31.0898 29.603C31.1159 29.577 31.1365 29.5461 31.1506 29.5121C31.1647 29.4781 31.172 29.4416 31.172 29.4048C31.172 29.368 31.1647 29.3315 31.1506 29.2975C31.1365 29.2635 31.1159 29.2326 31.0898 29.2065ZM19.4961 19.4961C18.0469 20.9419 16.126 21.7383 14.082 21.7383C12.0381 21.7383 10.1172 20.9419 8.66797 19.4961C7.22217 18.0469 6.42578 16.126 6.42578 14.082C6.42578 12.0381 7.22217 10.1138 8.66797 8.66797C10.1172 7.22217 12.0381 6.42578 14.082 6.42578C16.126 6.42578 18.0503 7.21875 19.4961 8.66797C20.9419 10.1172 21.7383 12.0381 21.7383 14.082C21.7383 16.126 20.9419 18.0503 19.4961 19.4961Z" fill="white"/>
</svg>
